<svg width="27" height="26" viewBox="0 0 27 26" fill="none" xmlns="http://www.w3.org/2000/svg">
<path d="M9.03085 20.9352C9.03085 21.0427 8.90565 21.1287 8.74778 21.1287C8.56815 21.1448 8.44294 21.0588 8.44294 20.9352C8.44294 20.8276 8.56815 20.7416 8.72601 20.7416C8.88931 20.7255 9.03085 20.8115 9.03085 20.9352ZM7.3379 20.6932C7.2998 20.8008 7.40867 20.9244 7.57198 20.9567C7.71351 21.0104 7.87681 20.9567 7.90948 20.8491C7.94214 20.7416 7.83871 20.618 7.6754 20.5696C7.53387 20.5319 7.37601 20.5857 7.3379 20.6932ZM9.74395 20.6018C9.58609 20.6395 9.47722 20.7416 9.49355 20.8653C9.50988 20.9728 9.65141 21.0427 9.81472 21.0051C9.97258 20.9674 10.0815 20.8653 10.0651 20.7577C10.0488 20.6556 9.90181 20.5857 9.74395 20.6018ZM13.3258 0C5.7756 0 0 5.6612 0 13.1181C0 19.0804 3.7996 24.1824 9.22681 25.9781C9.92359 26.1017 10.1685 25.677 10.1685 25.3276C10.1685 24.9942 10.1522 23.1556 10.1522 22.0265C10.1522 22.0265 6.34173 22.833 5.54153 20.4244C5.54153 20.4244 4.92097 18.8599 4.02823 18.4567C4.02823 18.4567 2.78165 17.6126 4.11532 17.6288C4.11532 17.6288 5.47077 17.7363 6.21653 19.0158C7.40867 21.0911 9.40645 20.4943 10.1849 20.1395C10.3101 19.2793 10.6639 18.6825 11.0558 18.3277C8.0129 17.9943 4.94274 17.5589 4.94274 12.3869C4.94274 10.9084 5.35645 10.1665 6.22742 9.22029C6.08589 8.87083 5.62319 7.42999 6.36895 5.56981C7.50665 5.22035 10.125 7.0214 10.125 7.0214C11.2137 6.72033 12.3841 6.56442 13.5435 6.56442C14.703 6.56442 15.8734 6.72033 16.9621 7.0214C16.9621 7.0214 19.5804 5.21497 20.7181 5.56981C21.4639 7.43537 21.0012 8.87083 20.8597 9.22029C21.7306 10.1719 22.2641 10.9138 22.2641 12.3869C22.2641 17.575 19.0579 17.989 16.0149 18.3277C16.5157 18.7524 16.9403 19.5588 16.9403 20.8223C16.9403 22.6341 16.924 24.876 16.924 25.3168C16.924 25.6663 17.1744 26.091 17.8657 25.9673C23.3093 24.1824 27 19.0804 27 13.1181C27 5.6612 20.876 0 13.3258 0ZM5.29113 18.5427C5.22036 18.5965 5.23669 18.7201 5.32923 18.8223C5.41633 18.9083 5.54153 18.9459 5.6123 18.8761C5.68306 18.8223 5.66673 18.6986 5.57419 18.5965C5.4871 18.5105 5.3619 18.4728 5.29113 18.5427ZM4.70323 18.1072C4.66512 18.1771 4.71956 18.2632 4.82843 18.3169C4.91552 18.3707 5.0244 18.3546 5.0625 18.2793C5.1006 18.2094 5.04617 18.1234 4.9373 18.0696C4.82843 18.0374 4.74133 18.0535 4.70323 18.1072ZM6.46694 20.0212C6.37984 20.0911 6.4125 20.2524 6.5377 20.3545C6.6629 20.4782 6.82077 20.4943 6.89153 20.4083C6.9623 20.3384 6.92964 20.1771 6.82077 20.075C6.70101 19.9513 6.5377 19.9352 6.46694 20.0212ZM5.84637 19.2309C5.75927 19.2846 5.75927 19.4244 5.84637 19.5481C5.93347 19.6717 6.08044 19.7255 6.15121 19.6717C6.23831 19.6018 6.23831 19.4621 6.15121 19.3384C6.075 19.2148 5.93347 19.161 5.84637 19.2309Z" fill="white"/>
</svg>
